<?xml version="1.0" encoding="UTF-8" standalone="no"?>
<!DOCTYPE svg PUBLIC "-//W3C//DTD SVG 1.1//EN" "http://www.w3.org/Graphics/SVG/1.1/DTD/svg11.dtd">
<svg width="100%" height="100%" viewBox="0 0 308 322" version="1.1" xmlns="http://www.w3.org/2000/svg" xmlns:xlink="http://www.w3.org/1999/xlink" xml:space="preserve" xmlns:serif="http://www.serif.com/" style="fill-rule:evenodd;clip-rule:evenodd;stroke-linecap:round;stroke-linejoin:round;stroke-miterlimit:1.5;">
    <g transform="matrix(1,0,0,1,-1972.14,-1585.42)">
        <g transform="matrix(1,0,0,1,1753.15,1431.4)">
            <g transform="matrix(1.31584e-16,2.14893,-2.15493,1.31951e-16,2130.24,-341.569)">
                <path d="M380,744.457L380,886.457" style="fill:none;stroke:rgb(90,93,105);stroke-width:0.93px;"/>
            </g>
            <g transform="matrix(1.31584e-16,2.14893,-2.15493,1.31951e-16,2130.24,-661.569)">
                <path d="M380,744.457L380,886.457" style="fill:none;stroke:rgb(90,93,105);stroke-width:0.93px;"/>
            </g>
            <g transform="matrix(0.934995,0,0,0.934995,24.2461,15.644)">
                <g transform="matrix(0.807269,0,0,0.807269,236.007,208.015)">
                    <path d="M65.625,276.563C73.339,276.563 79.688,270.214 79.688,262.5C79.688,254.786 73.339,248.438 65.625,248.438C57.911,248.438 51.563,254.786 51.563,262.5C51.563,270.214 57.911,276.563 65.625,276.563ZM65.625,257.813C68.196,257.813 70.313,259.929 70.313,262.5C70.313,265.071 68.196,267.188 65.625,267.188C63.054,267.188 60.938,265.071 60.938,262.5C60.938,259.929 63.054,257.813 65.625,257.813Z" style="fill:white;fill-rule:nonzero;"/>
                </g>
                <g transform="matrix(1,0,0,0.762032,-877.981,-952.33)">
                    <path d="M1319.3,1778.16C1322.01,1781.3 1323.14,1784.46 1323.86,1786.35C1324.92,1789.71 1325,1793.29 1324.1,1796.69C1321.91,1804.87 1314.45,1810.59 1305.99,1810.59C1304.35,1810.59 1302.72,1810.38 1301.13,1809.95L1254.56,1797.47C1252.46,1796.97 1250.96,1795.07 1250.96,1792.91C1250.96,1790.34 1253.08,1788.22 1255.65,1788.22C1256.1,1788.22 1256.55,1788.29 1256.99,1788.42L1303.58,1800.9C1304.37,1801.11 1305.18,1801.22 1306,1801.22C1311.15,1801.22 1315.38,1796.98 1315.38,1791.84C1315.38,1787.61 1312.52,1783.88 1308.43,1782.78L1242.75,1755.9C1240.74,1755.74 1238.72,1755.84 1236.73,1756.2L1194.84,1763.81L1194.84,1755.37C1194.84,1752.8 1192.72,1750.68 1190.15,1750.68L1143.27,1750.68C1140.7,1750.68 1138.59,1752.8 1138.59,1755.37L1138.59,1760.06L1115.15,1760.06C1112.58,1760.06 1110.46,1762.17 1110.46,1764.75L1110.46,1849.12C1110.46,1851.69 1112.58,1853.81 1115.15,1853.81L1138.59,1853.81L1138.59,1858.5C1138.59,1861.07 1140.7,1863.18 1143.27,1863.18L1190.15,1863.18C1192.72,1863.18 1194.84,1861.07 1194.84,1858.5L1194.84,1844.98L1267.37,1853.05C1272.73,1853.63 1278.14,1852.36 1282.67,1849.44L1382.1,1785.22C1387.92,1781.9 1391.52,1775.67 1391.48,1768.97C1391.48,1768.97 1391.48,1768.96 1391.48,1768.96C1391.48,1758.67 1383.01,1750.21 1372.73,1750.21C1369.43,1750.21 1366.2,1751.08 1363.35,1752.72L1363.35,1752.72L1319.3,1778.16ZM1185.46,1853.81L1147.96,1853.81L1147.96,1760.06L1185.46,1760.06L1185.46,1853.81ZM1242.75,1755.9C1246.97,1756.89 1250.87,1757.8 1254.49,1758.63L1246.99,1756.62C1245.6,1756.25 1244.18,1756.01 1242.75,1755.9Z" style="fill:white;fill-rule:nonzero;"/>
                </g>
            </g>
            <g transform="matrix(0.818809,0,0,3.5913,176.419,-1011.88)">
                <g transform="matrix(0.088134,0,0,0.096166,157.651,231.578)">
                    <rect x="330" y="1324" width="291" height="194" style="fill:rgb(173,134,118);fill-opacity:0.96;"/>
                </g>
                <g transform="matrix(0.088134,0,0,0.176544,198.217,109.565)">
                    <rect x="330" y="1324" width="291" height="194" style="fill:rgb(173,134,118);fill-opacity:0.96;"/>
                </g>
                <g transform="matrix(0.088134,0,0,0.215297,238.784,50.7374)">
                    <rect x="330" y="1324" width="291" height="194" style="fill:rgb(173,134,118);fill-opacity:0.96;"/>
                </g>
                <g transform="matrix(0.088134,0,0,0.219534,279.35,44.3052)">
                    <rect x="330" y="1324" width="291" height="194" style="fill:rgb(173,134,118);fill-opacity:0.96;"/>
                </g>
                <g transform="matrix(0.088134,0,0,0.198073,319.917,76.8831)">
                    <rect x="330" y="1324" width="291" height="194" style="fill:rgb(173,134,118);"/>
                </g>
                <g transform="matrix(1.00312e-16,0.635572,-1.64279,3.90261e-17,1622.92,136.041)">
                    <path d="M380,744.457L380,886.457" style="fill:none;stroke:rgb(113,116,126);stroke-width:2.56px;"/>
                </g>
            </g>
        </g>
    </g>
</svg>
