<?xml version="1.0" encoding="UTF-8" standalone="no"?>
<!DOCTYPE svg PUBLIC "-//W3C//DTD SVG 1.1//EN" "http://www.w3.org/Graphics/SVG/1.1/DTD/svg11.dtd">
<svg width="100%" height="100%" viewBox="0 0 307 317" version="1.1" xmlns="http://www.w3.org/2000/svg" xmlns:xlink="http://www.w3.org/1999/xlink" xml:space="preserve" xmlns:serif="http://www.serif.com/" style="fill-rule:evenodd;clip-rule:evenodd;stroke-linecap:round;stroke-linejoin:round;stroke-miterlimit:1.5;">
    <g transform="matrix(1,0,0,1,-2802.96,-182.063)">
        <g transform="matrix(1,0,0,1,2576.38,0)">
            <g transform="matrix(0.955972,0,0,0.955972,-8.16817,21.6182)">
                <g transform="matrix(1.06679,0,0,0.909747,-2723.08,23.7924)">
                    <path d="M2832.93,221.251L2835.56,453.009L3021.94,453.009" style="fill:none;stroke:rgb(173,134,118);stroke-width:33px;"/>
                </g>
                <g transform="matrix(1.00185,1.00185,-1.02859,1.02859,-2025.23,-3886.04)">
                    <path d="M3325.35,874.432L3281.82,874.432C3276.3,874.432 3271.82,878.913 3271.82,884.433L3271.82,889.553C3271.82,895.073 3276.3,899.554 3281.82,899.554L3341.82,899.554C3347.34,899.554 3351.82,895.073 3351.82,889.553L3351.82,884.433C3351.82,883.331 3351.64,882.27 3351.31,881.278L3341.93,790.419C3341.36,784.928 3336.44,780.931 3330.95,781.498L3325.86,782.024C3320.37,782.591 3316.37,787.509 3316.94,793L3325.35,874.432Z" style="fill:white;"/>
                </g>
            </g>
            <g transform="matrix(1.31951e-16,2.15493,-2.15493,1.31951e-16,2137.33,-674.465)">
                <g transform="matrix(1,1.2326e-32,2.46519e-32,1,17.7056,2.14284e-31)">
                    <path d="M380,744.457L380,886.457" style="fill:none;stroke:rgb(90,93,105);stroke-width:0.46px;"/>
                </g>
                <g transform="matrix(1,1.2326e-32,0,1,164.346,2.02968e-30)">
                    <path d="M380,744.457L380,886.457" style="fill:none;stroke:rgb(90,93,105);stroke-width:0.46px;"/>
                </g>
            </g>
        </g>
    </g>
</svg>
