<?xml version="1.0" encoding="UTF-8" standalone="no"?>
<!DOCTYPE svg PUBLIC "-//W3C//DTD SVG 1.1//EN" "http://www.w3.org/Graphics/SVG/1.1/DTD/svg11.dtd">
<svg width="100%" height="100%" viewBox="0 0 307 317" version="1.1" xmlns="http://www.w3.org/2000/svg" xmlns:xlink="http://www.w3.org/1999/xlink" xml:space="preserve" xmlns:serif="http://www.serif.com/" style="fill-rule:evenodd;clip-rule:evenodd;stroke-linecap:round;stroke-linejoin:round;stroke-miterlimit:1.5;">
    <g transform="matrix(1,0,0,1,-1965.35,-854.305)">
        <g transform="matrix(1,0,0,1,1716.44,681.805)">
            <g transform="matrix(0.955972,0,0,0.955972,17.7176,14.0479)">
                <g transform="matrix(1.38029e-16,2.25418,-2.25418,1.38029e-16,2240.6,-730.226)">
                    <g transform="matrix(1,1.2326e-32,2.46519e-32,1,17.7056,2.14284e-31)">
                        <path d="M380,744.457L380,886.457" style="fill:none;stroke:rgb(90,93,105);stroke-width:0.46px;"/>
                    </g>
                    <g transform="matrix(1,1.2326e-32,0,1,164.346,2.02968e-30)">
                        <path d="M380,744.457L380,886.457" style="fill:none;stroke:rgb(90,93,105);stroke-width:0.46px;"/>
                    </g>
                </g>
                <g transform="matrix(4.12776,0,0,6.54637,-14195.8,-1785.45)">
                    <g>
                        <g transform="matrix(0.449785,0,0,0.282249,2492.24,67.0554)">
                            <path d="M2365.97,878.32C2365.97,870.327 2359.52,863.839 2351.56,863.839L2292.22,863.839C2284.26,863.839 2277.8,870.327 2277.8,878.32L2277.8,937.985C2277.8,945.977 2284.26,952.466 2292.22,952.466L2351.56,952.466C2359.52,952.466 2365.97,945.977 2365.97,937.985L2365.97,878.32Z" style="fill:rgb(137,139,152);"/>
                        </g>
                        <g transform="matrix(0.315917,0,0,0.198244,2803.07,143.344)">
                            <path d="M2365.97,875.505C2365.97,869.066 2360.77,863.839 2354.36,863.839L2289.41,863.839C2283.01,863.839 2277.8,869.066 2277.8,875.505L2277.8,940.8C2277.8,947.238 2283.01,952.466 2289.41,952.466L2354.36,952.466C2360.77,952.466 2365.97,947.238 2365.97,940.8L2365.97,875.505Z" style="fill:rgb(105,110,126);stroke:white;stroke-width:3.72px;"/>
                        </g>
                        <g transform="matrix(2.58427e-17,-0.266116,0.422043,1.62949e-17,3425.2,485.276)">
                            <g transform="matrix(0.967586,0,0,1.01525,-1641.93,-659.872)">
                                <path d="M2299.29,845.755C2299.29,844.452 2298.18,843.395 2296.81,843.395L2295.57,843.395C2294.2,843.395 2293.09,844.452 2293.09,845.755L2293.09,857.779C2293.09,859.082 2294.2,860.139 2295.57,860.139L2296.81,860.139C2298.18,860.139 2299.29,859.082 2299.29,857.779L2299.29,845.755Z" style="fill:rgb(169,127,110);"/>
                            </g>
                            <g transform="matrix(0.967586,0,0,1.01525,-1630.38,-659.872)">
                                <path d="M2299.29,845.755C2299.29,844.452 2298.18,843.395 2296.81,843.395L2295.57,843.395C2294.2,843.395 2293.09,844.452 2293.09,845.755L2293.09,857.779C2293.09,859.082 2294.2,860.139 2295.57,860.139L2296.81,860.139C2298.18,860.139 2299.29,859.082 2299.29,857.779L2299.29,845.755Z" style="fill:rgb(169,127,110);"/>
                            </g>
                            <g transform="matrix(0.967586,0,0,1.01525,-1618.83,-659.872)">
                                <path d="M2299.29,845.755C2299.29,844.452 2298.18,843.395 2296.81,843.395L2295.57,843.395C2294.2,843.395 2293.09,844.452 2293.09,845.755L2293.09,857.779C2293.09,859.082 2294.2,860.139 2295.57,860.139L2296.81,860.139C2298.18,860.139 2299.29,859.082 2299.29,857.779L2299.29,845.755Z" style="fill:rgb(169,127,110);"/>
                            </g>
                            <g transform="matrix(0.967586,0,0,1.01525,-1607.28,-659.872)">
                                <path d="M2299.29,845.755C2299.29,844.452 2298.18,843.395 2296.81,843.395L2295.57,843.395C2294.2,843.395 2293.09,844.452 2293.09,845.755L2293.09,857.779C2293.09,859.082 2294.2,860.139 2295.57,860.139L2296.81,860.139C2298.18,860.139 2299.29,859.082 2299.29,857.779L2299.29,845.755Z" style="fill:rgb(169,127,110);"/>
                            </g>
                            <g transform="matrix(0.967586,0,0,1.01525,-1595.73,-659.872)">
                                <path d="M2299.29,845.755C2299.29,844.452 2298.18,843.395 2296.81,843.395L2295.57,843.395C2294.2,843.395 2293.09,844.452 2293.09,845.755L2293.09,857.779C2293.09,859.082 2294.2,860.139 2295.57,860.139L2296.81,860.139C2298.18,860.139 2299.29,859.082 2299.29,857.779L2299.29,845.755Z" style="fill:rgb(169,127,110);"/>
                            </g>
                            <g transform="matrix(0.967586,0,0,1.01525,-1584.18,-659.872)">
                                <path d="M2299.29,845.755C2299.29,844.452 2298.18,843.395 2296.81,843.395L2295.57,843.395C2294.2,843.395 2293.09,844.452 2293.09,845.755L2293.09,857.779C2293.09,859.082 2294.2,860.139 2295.57,860.139L2296.81,860.139C2298.18,860.139 2299.29,859.082 2299.29,857.779L2299.29,845.755Z" style="fill:rgb(169,127,110);"/>
                            </g>
                        </g>
                        <g transform="matrix(-0.422043,3.25898e-17,-5.16854e-17,-0.266116,3793.34,393.623)">
                            <g transform="matrix(0.967586,0,0,1.01525,-1641.93,-659.872)">
                                <path d="M2299.29,845.755C2299.29,844.452 2298.18,843.395 2296.81,843.395L2295.57,843.395C2294.2,843.395 2293.09,844.452 2293.09,845.755L2293.09,857.779C2293.09,859.082 2294.2,860.139 2295.57,860.139L2296.81,860.139C2298.18,860.139 2299.29,859.082 2299.29,857.779L2299.29,845.755Z" style="fill:rgb(169,127,110);"/>
                            </g>
                            <g transform="matrix(0.967586,0,0,1.01525,-1630.38,-659.872)">
                                <path d="M2299.29,845.755C2299.29,844.452 2298.18,843.395 2296.81,843.395L2295.57,843.395C2294.2,843.395 2293.09,844.452 2293.09,845.755L2293.09,857.779C2293.09,859.082 2294.2,860.139 2295.57,860.139L2296.81,860.139C2298.18,860.139 2299.29,859.082 2299.29,857.779L2299.29,845.755Z" style="fill:rgb(169,127,110);"/>
                            </g>
                            <g transform="matrix(0.967586,0,0,1.01525,-1618.83,-659.872)">
                                <path d="M2299.29,845.755C2299.29,844.452 2298.18,843.395 2296.81,843.395L2295.57,843.395C2294.2,843.395 2293.09,844.452 2293.09,845.755L2293.09,857.779C2293.09,859.082 2294.2,860.139 2295.57,860.139L2296.81,860.139C2298.18,860.139 2299.29,859.082 2299.29,857.779L2299.29,845.755Z" style="fill:rgb(169,127,110);"/>
                            </g>
                            <g transform="matrix(0.967586,0,0,1.01525,-1607.28,-659.872)">
                                <path d="M2299.29,845.755C2299.29,844.452 2298.18,843.395 2296.81,843.395L2295.57,843.395C2294.2,843.395 2293.09,844.452 2293.09,845.755L2293.09,857.779C2293.09,859.082 2294.2,860.139 2295.57,860.139L2296.81,860.139C2298.18,860.139 2299.29,859.082 2299.29,857.779L2299.29,845.755Z" style="fill:rgb(169,127,110);"/>
                            </g>
                            <g transform="matrix(0.967586,0,0,1.01525,-1595.73,-659.872)">
                                <path d="M2299.29,845.755C2299.29,844.452 2298.18,843.395 2296.81,843.395L2295.57,843.395C2294.2,843.395 2293.09,844.452 2293.09,845.755L2293.09,857.779C2293.09,859.082 2294.2,860.139 2295.57,860.139L2296.81,860.139C2298.18,860.139 2299.29,859.082 2299.29,857.779L2299.29,845.755Z" style="fill:rgb(169,127,110);"/>
                            </g>
                            <g transform="matrix(0.967586,0,0,1.01525,-1584.18,-659.872)">
                                <path d="M2299.29,845.755C2299.29,844.452 2298.18,843.395 2296.81,843.395L2295.57,843.395C2294.2,843.395 2293.09,844.452 2293.09,845.755L2293.09,857.779C2293.09,859.082 2294.2,860.139 2295.57,860.139L2296.81,860.139C2298.18,860.139 2299.29,859.082 2299.29,857.779L2299.29,845.755Z" style="fill:rgb(169,127,110);"/>
                            </g>
                        </g>
                        <g transform="matrix(2.58427e-17,0.266116,-0.422043,1.62949e-17,3647.99,161.494)">
                            <g transform="matrix(0.967586,0,0,1.01525,-1641.93,-659.872)">
                                <path d="M2299.29,845.755C2299.29,844.452 2298.18,843.395 2296.81,843.395L2295.57,843.395C2294.2,843.395 2293.09,844.452 2293.09,845.755L2293.09,857.779C2293.09,859.082 2294.2,860.139 2295.57,860.139L2296.81,860.139C2298.18,860.139 2299.29,859.082 2299.29,857.779L2299.29,845.755Z" style="fill:rgb(169,127,110);"/>
                            </g>
                            <g transform="matrix(0.967586,0,0,1.01525,-1630.38,-659.872)">
                                <path d="M2299.29,845.755C2299.29,844.452 2298.18,843.395 2296.81,843.395L2295.57,843.395C2294.2,843.395 2293.09,844.452 2293.09,845.755L2293.09,857.779C2293.09,859.082 2294.2,860.139 2295.57,860.139L2296.81,860.139C2298.18,860.139 2299.29,859.082 2299.29,857.779L2299.29,845.755Z" style="fill:rgb(169,127,110);"/>
                            </g>
                            <g transform="matrix(0.967586,0,0,1.01525,-1618.83,-659.872)">
                                <path d="M2299.29,845.755C2299.29,844.452 2298.18,843.395 2296.81,843.395L2295.57,843.395C2294.2,843.395 2293.09,844.452 2293.09,845.755L2293.09,857.779C2293.09,859.082 2294.2,860.139 2295.57,860.139L2296.81,860.139C2298.18,860.139 2299.29,859.082 2299.29,857.779L2299.29,845.755Z" style="fill:rgb(169,127,110);"/>
                            </g>
                            <g transform="matrix(0.967586,0,0,1.01525,-1607.28,-659.872)">
                                <path d="M2299.29,845.755C2299.29,844.452 2298.18,843.395 2296.81,843.395L2295.57,843.395C2294.2,843.395 2293.09,844.452 2293.09,845.755L2293.09,857.779C2293.09,859.082 2294.2,860.139 2295.57,860.139L2296.81,860.139C2298.18,860.139 2299.29,859.082 2299.29,857.779L2299.29,845.755Z" style="fill:rgb(169,127,110);"/>
                            </g>
                            <g transform="matrix(0.967586,0,0,1.01525,-1595.73,-659.872)">
                                <path d="M2299.29,845.755C2299.29,844.452 2298.18,843.395 2296.81,843.395L2295.57,843.395C2294.2,843.395 2293.09,844.452 2293.09,845.755L2293.09,857.779C2293.09,859.082 2294.2,860.139 2295.57,860.139L2296.81,860.139C2298.18,860.139 2299.29,859.082 2299.29,857.779L2299.29,845.755Z" style="fill:rgb(169,127,110);"/>
                            </g>
                            <g transform="matrix(0.967586,0,0,1.01525,-1584.18,-659.872)">
                                <path d="M2299.29,845.755C2299.29,844.452 2298.18,843.395 2296.81,843.395L2295.57,843.395C2294.2,843.395 2293.09,844.452 2293.09,845.755L2293.09,857.779C2293.09,859.082 2294.2,860.139 2295.57,860.139L2296.81,860.139C2298.18,860.139 2299.29,859.082 2299.29,857.779L2299.29,845.755Z" style="fill:rgb(169,127,110);"/>
                            </g>
                        </g>
                        <g transform="matrix(0.422043,0,0,0.266116,3279.85,253.147)">
                            <g transform="matrix(0.967586,0,0,1.01525,-1641.93,-659.872)">
                                <path d="M2299.29,845.755C2299.29,844.452 2298.18,843.395 2296.81,843.395L2295.57,843.395C2294.2,843.395 2293.09,844.452 2293.09,845.755L2293.09,857.779C2293.09,859.082 2294.2,860.139 2295.57,860.139L2296.81,860.139C2298.18,860.139 2299.29,859.082 2299.29,857.779L2299.29,845.755Z" style="fill:rgb(169,127,110);"/>
                            </g>
                            <g transform="matrix(0.967586,0,0,1.01525,-1630.38,-659.872)">
                                <path d="M2299.29,845.755C2299.29,844.452 2298.18,843.395 2296.81,843.395L2295.57,843.395C2294.2,843.395 2293.09,844.452 2293.09,845.755L2293.09,857.779C2293.09,859.082 2294.2,860.139 2295.57,860.139L2296.81,860.139C2298.18,860.139 2299.29,859.082 2299.29,857.779L2299.29,845.755Z" style="fill:rgb(169,127,110);"/>
                            </g>
                            <g transform="matrix(0.967586,0,0,1.01525,-1618.83,-659.872)">
                                <path d="M2299.29,845.755C2299.29,844.452 2298.18,843.395 2296.81,843.395L2295.57,843.395C2294.2,843.395 2293.09,844.452 2293.09,845.755L2293.09,857.779C2293.09,859.082 2294.2,860.139 2295.57,860.139L2296.81,860.139C2298.18,860.139 2299.29,859.082 2299.29,857.779L2299.29,845.755Z" style="fill:rgb(169,127,110);"/>
                            </g>
                            <g transform="matrix(0.967586,0,0,1.01525,-1607.28,-659.872)">
                                <path d="M2299.29,845.755C2299.29,844.452 2298.18,843.395 2296.81,843.395L2295.57,843.395C2294.2,843.395 2293.09,844.452 2293.09,845.755L2293.09,857.779C2293.09,859.082 2294.2,860.139 2295.57,860.139L2296.81,860.139C2298.18,860.139 2299.29,859.082 2299.29,857.779L2299.29,845.755Z" style="fill:rgb(169,127,110);"/>
                            </g>
                            <g transform="matrix(0.967586,0,0,1.01525,-1595.73,-659.872)">
                                <path d="M2299.29,845.755C2299.29,844.452 2298.18,843.395 2296.81,843.395L2295.57,843.395C2294.2,843.395 2293.09,844.452 2293.09,845.755L2293.09,857.779C2293.09,859.082 2294.2,860.139 2295.57,860.139L2296.81,860.139C2298.18,860.139 2299.29,859.082 2299.29,857.779L2299.29,845.755Z" style="fill:rgb(169,127,110);"/>
                            </g>
                            <g transform="matrix(0.967586,0,0,1.01525,-1584.18,-659.872)">
                                <path d="M2299.29,845.755C2299.29,844.452 2298.18,843.395 2296.81,843.395L2295.57,843.395C2294.2,843.395 2293.09,844.452 2293.09,845.755L2293.09,857.779C2293.09,859.082 2294.2,860.139 2295.57,860.139L2296.81,860.139C2298.18,860.139 2299.29,859.082 2299.29,857.779L2299.29,845.755Z" style="fill:rgb(169,127,110);"/>
                            </g>
                        </g>
                    </g>
                </g>
            </g>
        </g>
    </g>
</svg>
