<?xml version="1.0" encoding="UTF-8" standalone="no"?>
<!DOCTYPE svg PUBLIC "-//W3C//DTD SVG 1.1//EN" "http://www.w3.org/Graphics/SVG/1.1/DTD/svg11.dtd">
<svg width="100%" height="100%" viewBox="0 0 306 309" version="1.1" xmlns="http://www.w3.org/2000/svg" xmlns:xlink="http://www.w3.org/1999/xlink" xml:space="preserve" xmlns:serif="http://www.serif.com/" style="fill-rule:evenodd;clip-rule:evenodd;stroke-linecap:round;stroke-linejoin:round;stroke-miterlimit:1.5;">
    <g transform="matrix(1,0,0,1,-208.825,-150.756)">
        <g id="icon" transform="matrix(2.35866,0,0,3.6969,-7775.07,-927.916)">
            <g transform="matrix(5.56658e-17,0.57322,-0.909091,3.50996e-17,4191.01,70.6138)">
                <g>
                    <g transform="matrix(1,0,1.2326e-32,1,151.015,0)">
                        <path d="M380,744.457L380,886.457" style="fill:none;stroke:rgb(90,93,105);stroke-width:0.47px;"/>
                    </g>
                    <g transform="matrix(1,0,2.46519e-32,1,20.4799,0)">
                        <path d="M380,744.457L380,886.457" style="fill:none;stroke:rgb(90,93,105);stroke-width:0.47px;"/>
                    </g>
                </g>
            </g>
            <g transform="matrix(0.665417,0,0,0.945588,3262.91,11.332)">
                <g opacity="0.9">
                    <g transform="matrix(0.0790378,0,0,0.0967397,161.976,230.708)">
                        <rect x="330" y="1324" width="291" height="194" style="fill:rgb(90,93,105);fill-opacity:0.96;"/>
                    </g>
                    <g transform="matrix(0.0790378,0,0,0.177054,194.429,108.791)">
                        <rect x="330" y="1324" width="291" height="194" style="fill:rgb(90,93,105);fill-opacity:0.96;"/>
                    </g>
                    <g transform="matrix(0.0790378,0,0,0.216216,226.882,49.3427)">
                        <rect x="330" y="1324" width="291" height="194" style="fill:rgb(90,93,105);fill-opacity:0.96;"/>
                    </g>
                    <g transform="matrix(0.0790378,0,0,0.354108,259.335,-159.977)">
                        <rect x="330" y="1324" width="291" height="194" style="fill:rgb(127,176,195);fill-opacity:0.96;"/>
                    </g>
                    <g transform="matrix(0.0790378,0,0,0.417399,291.789,-256.054)">
                        <rect x="330" y="1324" width="291" height="194" style="fill:rgb(164,120,102);"/>
                    </g>
                    <g transform="matrix(0.0790378,0,0,0.205009,324.242,66.3552)">
                        <rect x="330" y="1324" width="291" height="194" style="fill:rgb(88,94,111);"/>
                    </g>
                </g>
            </g>
        </g>
    </g>
</svg>
