<?xml version="1.0" encoding="UTF-8" standalone="no"?>
<!DOCTYPE svg PUBLIC "-//W3C//DTD SVG 1.1//EN" "http://www.w3.org/Graphics/SVG/1.1/DTD/svg11.dtd">
<svg width="100%" height="100%" viewBox="0 0 307 321" version="1.1" xmlns="http://www.w3.org/2000/svg" xmlns:xlink="http://www.w3.org/1999/xlink" xml:space="preserve" xmlns:serif="http://www.serif.com/" style="fill-rule:evenodd;clip-rule:evenodd;stroke-linecap:round;stroke-linejoin:round;stroke-miterlimit:1.5;">
    <g transform="matrix(1,0,0,1,-248.914,-208.328)">
        <g transform="matrix(1,0,0,1,0,35.8281)">
            <g transform="matrix(0.955972,0,0,0.955972,19.0796,17.41)">
                <g transform="matrix(2.47855,0,0,3.93083,-8147.8,-1010.35)">
                    <g transform="matrix(0.422043,0,0,0.266116,3279.85,243.76)">
                        <path d="M489.223,390.634L466.164,390.634C462.913,399.663 457.688,408.113 450.482,415.319C423.939,441.862 380.516,441.54 353.576,414.599C326.635,387.658 326.312,344.236 352.856,317.692C367.193,303.355 386.456,296.859 405.384,298.159C411.433,298.574 416.609,294.005 416.934,287.961C417.26,281.917 412.613,276.673 406.563,276.257C381.575,274.542 356.146,283.126 337.218,302.054C302.171,337.101 302.597,394.435 338.168,430.006C373.74,465.578 431.073,466.004 466.12,430.957C477.667,419.41 485.364,405.445 489.223,390.634Z" style="fill:rgb(90,93,105);fill-opacity:0.75;"/>
                    </g>
                    <g transform="matrix(0.422043,0,0,0.266116,3279.85,243.76)">
                        <path d="M439.283,345.642L456.394,345.642C448.17,323.486 426.825,307.677 401.817,307.677C369.698,307.677 343.621,333.753 343.621,365.872C343.621,397.991 369.698,424.068 401.817,424.068C427.3,424.068 448.979,407.653 456.849,384.833L467.898,384.833L467.898,377.478L389.184,377.478L389.184,384.833L439.942,384.833C432.963,398.827 418.505,408.449 401.817,408.449C378.318,408.449 359.24,389.371 359.24,365.872C359.24,342.374 378.318,323.296 401.817,323.296C417.995,323.296 432.078,332.339 439.283,345.642Z" style="fill:rgb(137,166,187);"/>
                    </g>
                    <g transform="matrix(-0.193877,0,0,0.122248,5302.34,354.236)">
                        <path d="M9413.3,-98.234C9412.33,-121.564 9411.51,-136.971 9426.36,-137.337L9521.82,-138.234L9521.95,-138.233C9532.93,-138.164 9541.82,-129.229 9541.82,-118.234C9541.82,-107.195 9532.86,-98.234 9521.82,-98.234L9413.3,-98.234Z" style="fill:rgb(164,120,102);"/>
                        <g transform="matrix(1.41692,0,0,1.41692,-3991.88,53.2341)">
                            <circle cx="9569.29" cy="-119.478" r="15.363" style="fill:rgb(164,120,102);"/>
                        </g>
                    </g>
                </g>
                <g transform="matrix(-0.837549,-0.837549,0.837549,-0.837549,6932.71,10017.1)">
                    <path d="M9620.24,1953.77C9600.84,1936.61 9588.59,1911.53 9588.59,1883.62C9588.59,1831.93 9630.55,1789.97 9682.24,1789.97C9733.92,1789.97 9775.88,1831.93 9775.88,1883.62C9775.88,1911.53 9763.63,1936.61 9744.23,1953.77C9738.03,1959.26 9737.45,1968.75 9742.93,1974.95C9748.42,1981.15 9757.91,1981.73 9764.11,1976.24C9789.72,1953.59 9805.88,1920.47 9805.88,1883.62C9805.88,1815.38 9750.48,1759.97 9682.24,1759.97C9614,1759.97 9558.59,1815.38 9558.59,1883.62C9558.59,1920.47 9574.75,1953.59 9600.37,1976.24C9606.57,1981.73 9616.05,1981.15 9621.54,1974.95C9627.02,1968.75 9626.44,1959.26 9620.24,1953.77Z" style="fill:rgb(137,139,152);fill-opacity:0.75;"/>
                </g>
            </g>
            <g transform="matrix(1.31951e-16,2.15493,-2.15493,1.31951e-16,2159.67,-684.028)">
                <g transform="matrix(1,2.46519e-32,0,1,166.202,4.0554e-30)">
                    <path d="M380,744.457L380,886.457" style="fill:none;stroke:rgb(90,93,105);stroke-width:0.46px;"/>
                </g>
                <g transform="matrix(1,1.2326e-32,2.46519e-32,1,17.7056,0)">
                    <path d="M380,744.457L380,886.457" style="fill:none;stroke:rgb(90,93,105);stroke-width:0.46px;"/>
                </g>
            </g>
        </g>
    </g>
</svg>
