<?xml version="1.0" encoding="UTF-8" standalone="no"?>
<!DOCTYPE svg PUBLIC "-//W3C//DTD SVG 1.1//EN" "http://www.w3.org/Graphics/SVG/1.1/DTD/svg11.dtd">
<svg width="100%" height="100%" viewBox="0 0 307 324" version="1.1" xmlns="http://www.w3.org/2000/svg" xmlns:xlink="http://www.w3.org/1999/xlink" xml:space="preserve" xmlns:serif="http://www.serif.com/" style="fill-rule:evenodd;clip-rule:evenodd;stroke-linecap:round;stroke-linejoin:round;stroke-miterlimit:1.5;">
    <g transform="matrix(1,0,0,1,-246.5,-158.593)">
        <g transform="matrix(2.37042,0,0,3.75934,-7777.2,-925.241)">
            <g transform="matrix(0.909091,0,0,0.57322,3026.51,-136.217)">
                <g opacity="0.95">
                    <g transform="matrix(0.464052,0,0,0.464052,279.871,661.056)">
                        <path d="M457.459,476.255L343.2,476.255L355.896,416.222L444.763,416.222L457.459,476.255Z" style="fill:rgb(90,93,105);fill-opacity:0.75;"/>
                    </g>
                    <g transform="matrix(0.525457,0,0,0.547009,-4620.99,-214.923)">
                        <path d="M9721.6,1944.65L9639.22,1944.65L9644.7,1912.65L9716.12,1912.65L9721.6,1944.65Z" style="fill:rgb(90,93,105);fill-opacity:0.75;"/>
                    </g>
                    <g transform="matrix(110.503,0,0,52.5865,444.096,837.243)">
                        <path d="M0.251,-0.698C0.214,-0.747 0.176,-0.744 0.139,-0.698L0.152,-0.196C0.182,-0.161 0.211,-0.158 0.238,-0.196L0.251,-0.698ZM0.139,-0C0.179,0.07 0.217,0.07 0.251,-0L0.251,-0.112L0.139,-0.112L0.139,-0Z" style="fill:rgb(164,120,102);fill-rule:nonzero;"/>
                    </g>
                    <g transform="matrix(0.525457,0,0,0.525457,-4622.11,-173.012)">
                        <path d="M9620.24,1953.77C9600.84,1936.61 9588.59,1911.53 9588.59,1883.62C9588.59,1831.93 9630.55,1789.97 9682.24,1789.97C9733.92,1789.97 9775.88,1831.93 9775.88,1883.62C9775.88,1911.53 9763.63,1936.61 9744.23,1953.77C9738.03,1959.26 9737.45,1968.75 9742.93,1974.95C9748.42,1981.15 9757.91,1981.73 9764.11,1976.24C9789.72,1953.59 9805.88,1920.47 9805.88,1883.62C9805.88,1815.38 9750.48,1759.97 9682.24,1759.97C9614,1759.97 9558.59,1815.38 9558.59,1883.62C9558.59,1920.47 9574.75,1953.59 9600.37,1976.24C9606.57,1981.73 9616.05,1981.15 9621.54,1974.95C9627.02,1968.75 9626.44,1959.26 9620.24,1953.77Z" style="fill:rgb(90,93,105);fill-opacity:0.75;"/>
                    </g>
                    <g transform="matrix(0.525457,0,0,0.525457,-4622.11,-173.012)">
                        <path d="M9641.14,1893.65C9640.36,1890.44 9639.95,1887.07 9639.95,1883.62C9639.95,1860.12 9659.03,1841.04 9682.53,1841.04C9706.03,1841.04 9725.11,1860.12 9725.11,1883.62C9725.11,1887.18 9724.67,1890.65 9723.84,1893.96C9721.83,1902 9726.73,1910.15 9734.76,1912.15C9742.79,1914.16 9750.94,1909.27 9752.95,1901.24C9754.36,1895.6 9755.11,1889.69 9755.11,1883.62C9755.11,1843.56 9722.59,1811.04 9682.53,1811.04C9642.47,1811.04 9609.95,1843.56 9609.95,1883.62C9609.95,1889.51 9610.66,1895.23 9611.98,1900.71C9613.93,1908.76 9622.04,1913.71 9630.09,1911.76C9638.13,1909.81 9643.09,1901.7 9641.14,1893.65Z" style="fill:rgb(132,184,201);"/>
                    </g>
                </g>
            </g>
            <g transform="matrix(5.55109e-17,0.571625,-0.909091,3.50996e-17,4191.01,71.2199)">
                <path d="M380,744.457L380,886.457" style="fill:none;stroke:rgb(90,93,105);stroke-width:0.46px;"/>
                <g transform="matrix(1,0,0,1,149.866,0)">
                    <path d="M380,744.457L380,886.457" style="fill:none;stroke:rgb(90,93,105);stroke-width:0.46px;"/>
                </g>
            </g>
        </g>
    </g>
</svg>
