<?xml version="1.0" encoding="UTF-8" standalone="no"?>
<!DOCTYPE svg PUBLIC "-//W3C//DTD SVG 1.1//EN" "http://www.w3.org/Graphics/SVG/1.1/DTD/svg11.dtd">
<svg width="100%" height="100%" viewBox="0 0 307 317" version="1.1" xmlns="http://www.w3.org/2000/svg" xmlns:xlink="http://www.w3.org/1999/xlink" xml:space="preserve" xmlns:serif="http://www.serif.com/" style="fill-rule:evenodd;clip-rule:evenodd;stroke-linecap:round;stroke-linejoin:round;stroke-miterlimit:1.5;">
    <g transform="matrix(1,0,0,1,-1125.88,-2281.7)">
        <g transform="matrix(1,0,0,1,876.967,2109.2)">
            <g transform="matrix(1.31951e-16,2.15493,-2.15493,1.31951e-16,2159.67,-684.028)">
                <g>
                    <g transform="matrix(1,1.2326e-32,2.46519e-32,1,17.7056,2.14284e-31)">
                        <path d="M380,744.457L380,886.457" style="fill:none;stroke:rgb(90,93,105);stroke-width:0.46px;"/>
                    </g>
                    <g transform="matrix(1,1.2326e-32,0,1,164.346,2.02968e-30)">
                        <path d="M380,744.457L380,886.457" style="fill:none;stroke:rgb(90,93,105);stroke-width:0.46px;"/>
                    </g>
                </g>
            </g>
            <g transform="matrix(1,0,0,1,-19.5527,14.9386)">
                <g transform="matrix(4.17437,0,0,1.3898,-4594.75,-3068.59)">
                    <path d="M1231.1,2404.25C1231.1,2395.63 1228.77,2388.63 1225.89,2388.63L1182.55,2388.63C1179.68,2388.63 1177.35,2395.63 1177.35,2404.25L1177.35,2477.17C1177.35,2485.79 1179.68,2492.79 1182.55,2492.79L1225.89,2492.79C1228.77,2492.79 1231.1,2485.79 1231.1,2477.17L1231.1,2404.25Z" style="fill:white;"/>
                </g>
                <g transform="matrix(1.21503,0.00386812,0.00386812,0.956731,-1110.27,-2021.42)">
                    <path d="M1193,2476.32L1288.18,2477.75" style="fill:none;stroke:rgb(128,128,128);stroke-width:7px;"/>
                </g>
                <g transform="matrix(-0.631301,-0.169156,0.166077,-0.619808,889.822,504.24)">
                    <g>
                        <g transform="matrix(1,0,0,1,650,24.34)">
                            <path d="M246.211,208.526L208.518,246.23L212.216,249.953C217.195,254.983 223.987,257.815 231.065,257.813L231.074,257.813C238.139,257.817 244.922,254.997 249.902,249.986C249.911,249.977 249.918,249.927 249.926,249.921C254.922,244.925 257.732,238.142 257.732,231.076C257.732,224.005 254.917,217.216 249.913,212.219L246.211,208.526Z" style="fill:rgb(167,188,204);fill-rule:nonzero;"/>
                        </g>
                        <g transform="matrix(1,0,0,1,650,24.34)">
                            <path d="M52.763,64.555L216.345,228.437L228.437,216.345L64.555,52.763L52.763,64.555Z" style="fill:rgb(167,188,204);fill-rule:nonzero;"/>
                        </g>
                        <g transform="matrix(1,0,0,1,650,24.34)">
                            <path d="M233.409,211.373L241.234,203.548L77.394,39.925L69.527,47.791L233.409,211.373Z" style="fill:rgb(167,188,204);fill-rule:nonzero;"/>
                        </g>
                        <g transform="matrix(1,0,0,1,650,24.34)">
                            <path d="M47.791,69.527L39.925,77.394L203.547,241.235L211.373,233.408L47.791,69.527Z" style="fill:rgb(167,188,204);fill-rule:nonzero;"/>
                        </g>
                        <g transform="matrix(1,0,0,1,650,24.34)">
                            <path d="M70.097,37.278L30.54,30.54L37.278,70.097L70.097,37.278Z" style="fill:rgb(167,188,204);fill-rule:nonzero;"/>
                        </g>
                    </g>
                </g>
            </g>
            <g transform="matrix(0.831644,0,0,1.06427,275.253,144.752)">
                <path d="M275,50L265,50C262.239,50 260,52.239 260,55L260,90L170.108,90C167.346,90 165.108,92.239 165.108,95C165.108,97.761 167.346,100 170.108,100L260,100L260,215C260,217.761 262.239,220 265,220L275,220C283.284,220 290,226.716 290,235C290,243.284 283.284,250 275,250L25,250C19.573,250.018 14.302,251.821 10,255.13L10,115C10,106.716 16.716,100 25,100L76.728,100C79.49,100 81.728,97.761 81.728,95C81.728,92.239 79.49,90 76.728,90L25,90C11.2,90.017 0.017,101.2 0,115L0,275C0.017,288.8 11.2,299.983 25,300L40,300C42.761,300 45,297.761 45,295L45,260L275,260C288.8,259.983 299.983,248.8 300,235L300,75C299.983,61.2 288.8,50.017 275,50ZM35,290L25,290C16.716,290 10,283.284 10,275C10,271.893 10.944,269.007 12.562,266.613C15.257,262.623 19.822,260 25,260L35,260L35,290ZM275,210L270,210L270,60L275,60C283.284,60 290,66.716 290,75L290,215.13C285.698,211.821 280.427,210.018 275,210Z" style="fill:rgb(173,134,118);fill-rule:nonzero;"/>
            </g>
            <g transform="matrix(0.831644,0,0,1.06427,275.253,144.752)">
                <path d="M35,290L25,290C16.716,290 10,283.284 10,275C10,271.893 10.944,269.007 12.562,266.613C15.257,262.623 19.822,260 25,260L35,260L35,290Z" style="fill:rgb(173,134,118);fill-rule:nonzero;stroke:rgb(173,134,118);stroke-width:1.57px;stroke-linecap:butt;stroke-miterlimit:2;"/>
            </g>
            <g transform="matrix(0.831644,0,0,1.06427,275.253,144.752)">
                <path d="M275,210L270,210L270,60L275,60C283.284,60 290,66.716 290,75L290,215.13C285.698,211.821 280.427,210.018 275,210Z" style="fill:rgb(173,134,118);fill-rule:nonzero;stroke:rgb(173,134,118);stroke-width:2.09px;stroke-linecap:butt;stroke-miterlimit:2;"/>
            </g>
        </g>
    </g>
</svg>
