<?xml version="1.0" encoding="UTF-8" standalone="no"?>
<!DOCTYPE svg PUBLIC "-//W3C//DTD SVG 1.1//EN" "http://www.w3.org/Graphics/SVG/1.1/DTD/svg11.dtd">
<svg width="100%" height="100%" viewBox="0 0 589 142" version="1.1" xmlns="http://www.w3.org/2000/svg" xmlns:xlink="http://www.w3.org/1999/xlink" xml:space="preserve" xmlns:serif="http://www.serif.com/" style="fill-rule:evenodd;clip-rule:evenodd;stroke-linejoin:round;stroke-miterlimit:2;">
    <g transform="matrix(1,0,0,1,-6670.87,-3118.72)">
        <g transform="matrix(1,0,0,1.58594,3471.7,1893.84)">
            <g id="Logo-negativ-orange" serif:id="Logo negativ orange" transform="matrix(1.70583,0,7.39786e-19,1.0756,3042.3,722.926)">
                <g transform="matrix(0.195918,0,0,0.195918,-584.549,-251.897)">
                    <g transform="matrix(99.1193,0,0,99.1193,3951,1722)">
                        <path d="M0.09,-0L0.19,-0L0.19,-0.604L0.192,-0.604L0.423,-0L0.521,-0L0.752,-0.604L0.754,-0.604L0.754,-0L0.854,-0L0.854,-0.698L0.689,-0.698L0.474,-0.118L0.255,-0.698L0.09,-0.698L0.09,-0Z" style="fill:white;fill-rule:nonzero;"/>
                    </g>
                    <g transform="matrix(99.1193,0,0,99.1193,4052.3,1722)">
                        <path d="M0.094,-0L0.485,-0L0.485,-0.088L0.194,-0.088L0.194,-0.318L0.459,-0.318L0.459,-0.406L0.194,-0.406L0.194,-0.61L0.485,-0.61L0.485,-0.698L0.094,-0.698L0.094,-0Z" style="fill:white;fill-rule:nonzero;"/>
                    </g>
                    <g transform="matrix(99.1193,0,0,99.1193,4115.14,1722)">
                        <path d="M0.083,-0L0.289,-0C0.519,-0 0.661,-0.121 0.661,-0.355C0.661,-0.57 0.496,-0.698 0.289,-0.698L0.083,-0.698L0.083,-0ZM0.183,-0.61L0.3,-0.61C0.444,-0.61 0.555,-0.514 0.555,-0.351C0.555,-0.171 0.46,-0.088 0.288,-0.088L0.183,-0.088L0.183,-0.61Z" style="fill:white;fill-rule:nonzero;"/>
                    </g>
                    <g transform="matrix(99.1193,0,0,99.1193,4194.44,1722)">
                        <rect x="0.089" y="-0.698" width="0.1" height="0.698" style="fill:white;fill-rule:nonzero;"/>
                    </g>
                    <g transform="matrix(99.1193,0,0,99.1193,4229.72,1722)">
                        <path d="M0.032,-0L0.515,-0L0.515,-0.088L0.148,-0.088L0.509,-0.608L0.509,-0.698L0.044,-0.698L0.044,-0.61L0.394,-0.61L0.032,-0.09L0.032,-0Z" style="fill:white;fill-rule:nonzero;"/>
                    </g>
                    <g transform="matrix(99.1193,0,0,99.1193,4292.57,1722)">
                        <rect x="0.089" y="-0.698" width="0.1" height="0.698" style="fill:white;fill-rule:nonzero;"/>
                    </g>
                    <g transform="matrix(99.1193,0,0,99.1193,4327.85,1722)">
                        <path d="M0.088,-0L0.188,-0L0.188,-0.574L0.19,-0.574L0.506,-0L0.634,-0L0.634,-0.698L0.534,-0.698L0.534,-0.136L0.532,-0.136L0.224,-0.698L0.088,-0.698L0.088,-0Z" style="fill:white;fill-rule:nonzero;"/>
                    </g>
                    <g transform="matrix(99.1193,0,0,99.1193,4407.15,1722)">
                        <path d="M0.183,-0.61L0.268,-0.61C0.33,-0.61 0.422,-0.578 0.422,-0.49C0.422,-0.398 0.344,-0.367 0.282,-0.367L0.183,-0.367L0.183,-0.61ZM0.083,-0L0.183,-0L0.183,-0.279L0.281,-0.279C0.407,-0.279 0.528,-0.334 0.528,-0.489C0.528,-0.648 0.409,-0.698 0.266,-0.698L0.083,-0.698L0.083,-0Z" style="fill:white;fill-rule:nonzero;"/>
                    </g>
                    <g transform="matrix(99.1193,0,0,99.1193,4469.99,1722)">
                        <path d="M0.094,-0L0.194,-0L0.194,-0.318L0.528,-0.318L0.528,-0L0.628,-0L0.628,-0.698L0.528,-0.698L0.528,-0.406L0.194,-0.406L0.194,-0.698L0.094,-0.698L0.094,-0Z" style="fill:white;fill-rule:nonzero;"/>
                    </g>
                    <g transform="matrix(99.1193,0,0,99.1193,4549.28,1722)">
                        <path d="M0.284,-0L0.384,-0L0.384,-0.292L0.656,-0.698L0.539,-0.698L0.336,-0.385L0.128,-0.698L0.011,-0.698L0.284,-0.292L0.284,-0Z" style="fill:white;fill-rule:nonzero;"/>
                    </g>
                    <g transform="matrix(99.1193,0,0,99.1193,4623.13,1722)">
                        <path d="M0.42,-0.685C0.372,-0.702 0.317,-0.71 0.271,-0.71C0.145,-0.71 0.047,-0.644 0.047,-0.52C0.047,-0.303 0.347,-0.346 0.347,-0.19C0.347,-0.108 0.267,-0.076 0.21,-0.076C0.159,-0.076 0.099,-0.096 0.065,-0.11L0.055,-0.017C0.101,-0.002 0.149,0.012 0.198,0.012C0.338,0.012 0.453,-0.047 0.453,-0.196C0.453,-0.426 0.153,-0.395 0.153,-0.529C0.153,-0.602 0.219,-0.622 0.275,-0.622C0.327,-0.622 0.355,-0.613 0.406,-0.593L0.42,-0.685Z" style="fill:white;fill-rule:nonzero;"/>
                    </g>
                    <g transform="matrix(99.1193,0,0,99.1193,4680.42,1722)">
                        <rect x="0.089" y="-0.698" width="0.1" height="0.698" style="fill:white;fill-rule:nonzero;"/>
                    </g>
                    <g transform="matrix(99.1193,0,0,99.1193,4715.71,1722)">
                        <path d="M0.094,-0L0.194,-0L0.194,-0.342L0.505,-0L0.651,-0L0.297,-0.368L0.625,-0.698L0.492,-0.698L0.194,-0.391L0.194,-0.698L0.094,-0.698L0.094,-0Z" style="fill:white;fill-rule:nonzero;"/>
                    </g>
                    <g transform="matrix(99.1193,0,0,99.1193,4789.55,1722)">
                        <path d="M0.012,-0L0.117,-0L0.188,-0.176L0.53,-0.176L0.601,-0L0.71,-0L0.415,-0.698L0.31,-0.698L0.012,-0ZM0.498,-0.258L0.22,-0.258L0.359,-0.604L0.498,-0.258Z" style="fill:white;fill-rule:nonzero;"/>
                    </g>
                    <g transform="matrix(99.1193,0,0,99.1193,4868.84,1722)">
                        <path d="M0.088,-0L0.48,-0L0.48,-0.088L0.188,-0.088L0.188,-0.698L0.088,-0.698L0.088,-0Z" style="fill:white;fill-rule:nonzero;"/>
                    </g>
                    <g transform="matrix(99.1193,0,0,99.1193,4926.14,1722)">
                        <rect x="0.089" y="-0.698" width="0.1" height="0.698" style="fill:white;fill-rule:nonzero;"/>
                    </g>
                    <g transform="matrix(99.1193,0,0,99.1193,4961.42,1722)">
                        <path d="M0.42,-0.685C0.372,-0.702 0.317,-0.71 0.271,-0.71C0.145,-0.71 0.047,-0.644 0.047,-0.52C0.047,-0.303 0.347,-0.346 0.347,-0.19C0.347,-0.108 0.267,-0.076 0.21,-0.076C0.159,-0.076 0.099,-0.096 0.065,-0.11L0.055,-0.017C0.101,-0.002 0.149,0.012 0.198,0.012C0.338,0.012 0.453,-0.047 0.453,-0.196C0.453,-0.426 0.153,-0.395 0.153,-0.529C0.153,-0.602 0.219,-0.622 0.275,-0.622C0.327,-0.622 0.355,-0.613 0.406,-0.593L0.42,-0.685Z" style="fill:white;fill-rule:nonzero;"/>
                    </g>
                    <g transform="matrix(99.1193,0,0,99.1193,5018.71,1722)">
                        <path d="M0.579,-0.68C0.529,-0.702 0.476,-0.71 0.422,-0.71C0.209,-0.71 0.053,-0.567 0.053,-0.352C0.053,-0.13 0.2,0.012 0.421,0.012C0.462,0.012 0.527,0.009 0.58,-0.013L0.574,-0.11C0.539,-0.089 0.472,-0.076 0.422,-0.076C0.277,-0.076 0.159,-0.185 0.159,-0.349C0.159,-0.506 0.266,-0.622 0.427,-0.622C0.478,-0.622 0.527,-0.609 0.571,-0.583L0.579,-0.68Z" style="fill:white;fill-rule:nonzero;"/>
                    </g>
                    <g transform="matrix(99.1193,0,0,99.1193,5087.01,1722)">
                        <path d="M0.094,-0L0.194,-0L0.194,-0.318L0.528,-0.318L0.528,-0L0.628,-0L0.628,-0.698L0.528,-0.698L0.528,-0.406L0.194,-0.406L0.194,-0.698L0.094,-0.698L0.094,-0Z" style="fill:white;fill-rule:nonzero;"/>
                    </g>
                    <g transform="matrix(99.1193,0,0,99.1193,5166.3,1722)">
                        <path d="M0.094,-0L0.485,-0L0.485,-0.088L0.194,-0.088L0.194,-0.318L0.459,-0.318L0.459,-0.406L0.194,-0.406L0.194,-0.61L0.485,-0.61L0.485,-0.698L0.094,-0.698L0.094,-0Z" style="fill:white;fill-rule:nonzero;"/>
                    </g>
                    <g transform="matrix(99.1193,0,0,99.1193,3951,1837.88)">
                        <path d="M0.012,-0L0.117,-0L0.188,-0.176L0.53,-0.176L0.601,-0L0.71,-0L0.415,-0.698L0.31,-0.698L0.012,-0ZM0.498,-0.258L0.22,-0.258L0.359,-0.604L0.498,-0.258Z" style="fill:white;fill-rule:nonzero;"/>
                    </g>
                    <g transform="matrix(99.1193,0,0,99.1193,4030.3,1837.88)">
                        <path d="M0.088,-0L0.48,-0L0.48,-0.088L0.188,-0.088L0.188,-0.698L0.088,-0.698L0.088,-0Z" style="fill:white;fill-rule:nonzero;"/>
                    </g>
                    <g transform="matrix(99.1193,0,0,99.1193,4087.59,1837.88)">
                        <path d="M0.088,-0L0.48,-0L0.48,-0.088L0.188,-0.088L0.188,-0.698L0.088,-0.698L0.088,-0Z" style="fill:white;fill-rule:nonzero;"/>
                    </g>
                    <g transform="matrix(99.1193,0,0,99.1193,4144.88,1837.88)">
                        <rect x="0.089" y="-0.698" width="0.1" height="0.698" style="fill:white;fill-rule:nonzero;"/>
                    </g>
                    <g transform="matrix(99.1193,0,0,99.1193,4180.16,1837.88)">
                        <path d="M0.012,-0L0.117,-0L0.188,-0.176L0.53,-0.176L0.601,-0L0.71,-0L0.415,-0.698L0.31,-0.698L0.012,-0ZM0.498,-0.258L0.22,-0.258L0.359,-0.604L0.498,-0.258Z" style="fill:white;fill-rule:nonzero;"/>
                    </g>
                    <g transform="matrix(99.1193,0,0,99.1193,4259.46,1837.88)">
                        <path d="M0.088,-0L0.188,-0L0.188,-0.574L0.19,-0.574L0.506,-0L0.634,-0L0.634,-0.698L0.534,-0.698L0.534,-0.136L0.532,-0.136L0.224,-0.698L0.088,-0.698L0.088,-0Z" style="fill:white;fill-rule:nonzero;"/>
                    </g>
                    <g transform="matrix(99.1193,0,0,99.1193,4338.75,1837.88)">
                        <path d="M0.032,-0L0.515,-0L0.515,-0.088L0.148,-0.088L0.509,-0.608L0.509,-0.698L0.044,-0.698L0.044,-0.61L0.394,-0.61L0.032,-0.09L0.032,-0Z" style="fill:white;fill-rule:nonzero;"/>
                    </g>
                </g>
                <g id="Logo" transform="matrix(0.112983,0,0,0.112983,58.1496,-49.8682)">
                    <g id="Segmente-aussen" serif:id="Segmente aussen">
                        <g id="Segment-3" serif:id="Segment 3" transform="matrix(7.18765,0,0,7.18765,-4887.03,197.378)">
                            <path d="M822.437,152.628C819.251,167.21 809.588,180.65 793.364,188.425L794.318,182.125C807.631,174.191 815.615,164.644 819.045,154.087C820.246,153.611 821.378,153.124 822.437,152.628Z" style="fill:rgb(90,93,105);"/>
                        </g>
                        <g id="Segment-2" serif:id="Segment 2" transform="matrix(-0.5,-0.866025,0.866025,-0.5,-52.9963,2400.98)">
                            <path d="M312.332,1115.19C427.569,896.489 607.583,804.57 839.41,934.162L882.054,917.46C656.803,763.25 379.44,881.786 312.332,1115.19Z" style="fill:rgb(90,93,105);"/>
                        </g>
                        <path id="Segment-1" serif:id="Segment 1" d="M312.332,1115.19C427.569,896.489 607.583,804.57 839.41,934.162L882.054,917.46C656.803,763.25 379.44,881.786 312.332,1115.19Z" style="fill:rgb(90,93,105);"/>
                    </g>
                    <g id="Segmente-innen" serif:id="Segmente innen">
                        <g>
                            <g id="Segment-21" serif:id="Segment 2" transform="matrix(-0.5,-0.866025,0.866025,-0.5,-60.3253,2400.89)">
                                <path d="M408.336,1142.99L503.308,1216.1C541.408,1053.69 648.429,954.768 813.172,1002.61C658.665,888.097 444.329,992.783 408.336,1142.99Z" style="fill:rgb(164,120,102);"/>
                            </g>
                            <g id="Segment-31" serif:id="Segment 3" transform="matrix(1,0,0,1,1.17456,2.5964)">
                                <path d="M408.336,1142.99L503.308,1216.1C541.408,1053.69 648.429,954.768 813.172,1002.61C658.665,888.097 444.329,992.783 408.336,1142.99Z" style="fill:rgb(90,93,105);"/>
                            </g>
                        </g>
                        <g transform="matrix(1.16081,-0.0193841,0.0305657,1.83042,-117.381,-981.828)">
                            <g id="Segment-22" serif:id="Segment 2" transform="matrix(5.71188e-17,-0.233353,-1.52696,-3.51699e-16,2415.87,1361.17)">
                                <path d="M408.336,1142.99L503.308,1216.1C541.408,1053.69 648.429,954.768 813.172,1002.61C658.665,888.097 444.329,992.783 408.336,1142.99Z" style="fill:white;"/>
                            </g>
                            <g id="Segment-23" serif:id="Segment 2" transform="matrix(5.71188e-17,-0.233353,-1.52696,-3.51699e-16,2415.87,1294.54)">
                                <path d="M408.336,1142.99L503.308,1216.1C541.408,1053.69 648.429,954.768 813.172,1002.61C658.665,888.097 444.329,992.783 408.336,1142.99Z" style="fill:white;"/>
                            </g>
                        </g>
                    </g>
                </g>
            </g>
        </g>
    </g>
</svg>
