<?xml version="1.0" encoding="UTF-8" standalone="no"?>
<!DOCTYPE svg PUBLIC "-//W3C//DTD SVG 1.1//EN" "http://www.w3.org/Graphics/SVG/1.1/DTD/svg11.dtd">
<svg width="100%" height="100%" viewBox="0 0 901 540" version="1.1" xmlns="http://www.w3.org/2000/svg" xmlns:xlink="http://www.w3.org/1999/xlink" xml:space="preserve" xmlns:serif="http://www.serif.com/" style="fill-rule:evenodd;clip-rule:evenodd;stroke-linejoin:round;stroke-miterlimit:2;">
    <g transform="matrix(1,0,0,1,-4.3872e-07,3.02916e-06)">
        <g transform="matrix(1,0,0,1,-28.8719,-19.5447)">
            <g opacity="0.5">
                <g transform="matrix(2.24788,0,4.02255e-17,3.54457,-1227.05,-3925.54)">
                    <g opacity="0.4">
                        <g id="Segment-2" serif:id="Segment 2" transform="matrix(5.71188e-17,-0.233353,-1.52696,-3.51699e-16,2415.87,1360.61)">
                            <path d="M408.336,1142.99L503.308,1216.1C541.408,1053.69 648.429,954.768 813.172,1002.61C658.665,888.097 444.329,992.783 408.336,1142.99Z"/>
                        </g>
                        <g id="Segment-21" serif:id="Segment 2" transform="matrix(5.79284e-17,-0.233353,-1.52696,-3.51699e-16,2415.65,1302.75)">
                            <path d="M408.336,1142.99L503.308,1216.1C541.408,1053.69 648.429,954.768 813.172,1002.61C658.665,888.097 444.329,992.783 408.336,1142.99Z"/>
                        </g>
                    </g>
                </g>
            </g>
        </g>
    </g>
</svg>
